<?xml version="1.0" encoding="utf-8"?><svg xmlns="http://www.w3.org/2000/svg" xmlns:xlink="http://www.w3.org/1999/xlink"><symbol viewBox="0 0 512 512" id="aeroplane" xmlns="http://www.w3.org/2000/svg"><path d="M499.39 12.633c-12.64-12.64-32-15.93-54.5-9.258-19.476 5.773-40.054 18.805-57.945 36.695L349.56 77.457H1.016v77.695l101.129 33.176 46.035 48.613 25.234-25.234 31.547 10.348-81.078 81.074-65.235 5.36L0 367.136l83.629 40-26.945 26.941 21.253 21.25 26.903-26.902L144.89 512l58.641-58.637 5.356-65.226 79.875-79.871 10.515 31.957-25.422 25.422 49.09 46.48 32.867 99.86h77.684v-348.45l38.457-38.457c17.84-17.84 30.856-38.398 36.645-57.887 6.703-22.543 3.433-41.921-9.207-54.558zM31.07 133.383v-25.871h288.434l-90.73 90.726zM403.441 481.93H377.56l-64.993-197.47 90.875-90.87zM479.79 58.633c-4.39 14.777-14.723 30.828-29.086 45.191l-270.867 270.86-5.356 65.226-20.828 20.824-26.28-54.84 20.1-20.101-21.25-21.25-20.058 20.059-54.879-26.25 20.817-20.813 65.23-5.36L408.199 61.32c14.41-14.41 30.477-24.754 45.235-29.133 11.109-3.292 20.347-2.66 24.707 1.7 4.347 4.343 4.96 13.597 1.648 24.746zm0 0"/></symbol><symbol viewBox="0 0 434.136 434.136" id="bow" xmlns="http://www.w3.org/2000/svg"><path d="M354.295 84.173c26.361 8.117 55.507 1.468 75.511-18.533 3.905-3.905 3.905-10.237 0-14.142-3.905-3.905-10.236-3.906-14.142 0-17.878 17.877-45.771 21.204-67.831 8.09-39.643-23.568-86.842-33.542-132.897-28.08-43.519 5.159-83.275 23.139-115.7 52.184L82.912 67.369c4.818-8.462 6.081-18.493 3.305-28.265-3.531-12.428-13.059-21.956-25.487-25.487L14.133.381A10 10 0 0 0 1.782 12.732L15.018 59.33c3.531 12.428 13.059 21.956 25.487 25.487a37.706 37.706 0 0 0 10.313 1.452 36.181 36.181 0 0 0 17.946-4.762l16.199 16.199c-30.617 32.948-49.54 73.793-54.856 118.632-5.46 46.055 4.512 93.253 28.08 132.898 13.114 22.06 9.787 49.953-8.09 67.831-3.905 3.905-3.905 10.237 0 14.142 1.953 1.953 4.512 2.929 7.071 2.929s5.119-.977 7.071-2.929c20.001-20.002 26.651-49.15 18.533-75.511l130.091-130.091 63.981 63.981 3.259 42.378a10.01 10.01 0 0 0 2.899 6.304l56.698 56.698a9.999 9.999 0 0 0 16.994-5.831l3.761-30.081 30.081-3.76a10 10 0 1 0 5.831-16.993l-56.698-56.698a9.999 9.999 0 0 0-6.305-2.899l-42.379-3.26-63.981-63.981L354.295 84.173zm-14.909 282.194l-39.625-39.625-1.187-15.426 42.395 42.394-1.583 12.657zm28.382-28.381l-12.657 1.582-42.394-42.393 15.426 1.186 39.625 39.625zM334.95 75.234L212.863 197.32l-99.461-99.461c61.199-54.052 150.23-63.499 221.548-22.625zM45.97 65.578c-5.711-1.623-10.09-6.001-11.713-11.713l-8.335-29.344 29.344 8.335c5.711 1.623 10.09 6.001 11.713 11.713 1.709 6.018.089 12.251-4.334 16.674s-10.657 6.044-16.675 4.335zm27.862 270.773c-41.534-72.473-31.108-163.234 25.282-224.495l99.607 99.607L73.832 336.351z"/></symbol><symbol viewBox="0 0 321.145 321.145" id="console" xmlns="http://www.w3.org/2000/svg"><path d="M320.973 200.981c-.8-18.4-4-38.8-8.8-58-4.8-18.4-10.8-35.6-18-48.8-28-49.2-58.4-41.6-94.8-32-11.6 2.8-24 6-36.8 7.2h-4c-12.8-1.2-25.2-4.4-36.8-7.2-36.4-9.2-66.8-17.2-94.8 32.4-7.2 13.2-13.6 30.4-18 48.8-4.8 19.2-8 39.6-8.8 58-.8 20.4 1.2 35.2 5.6 45.6 4.4 9.6 10.8 15.6 19.2 18 7.6 2 16.4 1.2 25.6-2.8 15.6-6.4 33.6-20 51.2-36.4 12.4-12 35.6-18 58.8-18s46.4 6 58.8 18c17.6 16.4 35.6 30 51.2 36.4 9.2 3.6 18 4.8 25.6 2.8 8-2.4 14.8-8 19.2-18.4 4.4-10 6.4-24.8 5.6-45.6zm-19.2 40c-2.4 5.6-5.6 8.8-9.6 10-4.4 1.2-10 .4-16.4-2-14-5.6-30.4-18-46.4-33.2-15.2-15.2-42-22.8-68.8-22.8s-53.6 7.6-69.2 22c-16.4 15.2-32.8 28-46.4 33.2-6.4 2.4-12 3.6-16.4 2-4-1.2-7.2-4.4-9.6-10-3.2-7.6-4.8-20-4-38.4.8-17.2 3.6-36.8 8.4-55.2 4.4-17.2 10-33.2 16.8-45.2 22-39.6 47.6-33.2 78-25.2 12.4 3.2 25.2 6.4 39.2 7.6h6c14.4-1.2 27.2-4.4 39.6-7.6 30.4-7.6 56-14.4 78 25.2 6.8 12 12.4 27.6 16.8 45.2 4.4 18.4 7.6 37.6 8.4 55.2.8 18.4-.8 30.8-4.4 39.2z"/><path d="M123.773 122.981c-4-3.6-8.8-6.4-14.4-6.8-.4-5.2-2.8-10.4-6.4-14l-.4-.4c-4.4-4.4-10-6.8-16.4-6.8-6.4 0-12.4 2.8-16.4 6.8-3.6 3.6-6.4 8.8-6.8 14.4-5.6.4-10.4 2.8-14.4 6.4l-.4.4c-4.4 4.4-6.8 10-6.8 16.4 0 6.4 2.8 12.4 6.8 16.4 4 4 8.8 6.4 14.8 6.8.4 5.6 2.8 10.8 6.8 14.4 4.4 4.4 10 6.8 16.4 6.8 6.4 0 12.4-2.8 16.4-6.8 3.6-4 6.4-8.8 6.8-14.4 5.6-.4 10.8-2.8 14.4-6.8 4.4-4.4 6.8-10 6.8-16.4 0-6.4-2.8-12.4-6.8-16.4zm-10 22.4c-1.6 1.6-3.6 2.4-6 2.4h-5.6c-4 0-7.6 3.2-7.6 7.6v5.2c0 2.4-.8 4.4-2.4 6-1.6 1.6-3.6 2.4-6 2.4s-4.4-.8-6-2.4c-1.6-1.6-2.4-3.6-2.4-6v-5.6c0-4-3.2-7.6-7.6-7.6h-5.6c-2.4 0-4.4-.8-6-2.4-1.2-1.2-2.4-3.2-2.4-5.6 0-2.4.8-4.4 2.4-6l.4-.4c1.6-1.2 3.6-2 5.6-2h5.6c4 0 7.6-3.2 7.6-7.6v-5.6c0-2.4.8-4.4 2.4-6 1.6-1.6 3.6-2.4 6-2.4s4.4.8 6 2.4l.4.4c1.2 1.6 2 3.6 2 5.6v5.6c0 4 3.2 7.6 7.6 7.6h5.6c2.4 0 4.4.8 6 2.4 1.6 1.6 2.4 3.6 2.4 6s-.8 4.4-2.4 6z"/><circle cx="230.173" cy="110.981" r="14"/><circle cx="230.173" cy="167.781" r="14"/><circle cx="201.773" cy="139.381" r="14"/><circle cx="258.573" cy="139.381" r="14"/></symbol><symbol viewBox="0 0 59.986 59.986" id="diamond" xmlns="http://www.w3.org/2000/svg"><path d="M59.972 20.164a1.005 1.005 0 0 0-.054-.531c-.009-.024-.011-.049-.022-.072-.008-.017-.022-.03-.031-.047-.009-.017-.013-.035-.023-.052l-10-16a1.026 1.026 0 0 0-.161-.197l-.003-.002a.983.983 0 0 0-.297-.185c-.014-.006-.023-.018-.038-.024-.011-.004-.023-.002-.034-.005a.98.98 0 0 0-.314-.057h-38a.977.977 0 0 0-.31.056c-.011.003-.022.001-.032.005-.015.005-.024.017-.038.023a.997.997 0 0 0-.287.175c-.005.005-.012.008-.017.012a1.006 1.006 0 0 0-.163.198l-10 16c-.01.016-.014.035-.023.052-.009.017-.023.03-.031.047-.011.023-.013.048-.023.072a.988.988 0 0 0 .025.789c.009.018.012.038.022.056.016.029.04.051.058.078.014.021.022.044.039.064l28.989 35.986a.043.043 0 0 0 .006.007l.005.007c.003.004.008.005.011.009a.982.982 0 0 0 .384.277.987.987 0 0 0 .383.087c.114 0 .229-.02.343-.061.017-.006.028-.02.045-.027.051-.021.091-.055.137-.084a.968.968 0 0 0 .206-.163c.014-.015.035-.022.048-.038l29-36c.016-.02.024-.044.039-.064.019-.027.042-.049.058-.078.01-.018.013-.038.022-.056a.945.945 0 0 0 .045-.115c.014-.047.028-.093.036-.142zM32.095 4.993h15.459l-4.86 13.045L32.095 4.993zm8.797 14H19.095L29.993 5.58l10.899 13.413zm-23.67-.868L12.423 4.993h15.469l-10.67 13.132zm24.371 2.868L29.818 52.599 18.269 20.993h23.324zm7.628-14.747l7.967 12.748H44.472l4.749-12.748zm-38.465.013l4.653 12.734H2.798l7.958-12.734zm5.384 14.734l10.839 29.664L3.083 20.993H16.14zm16.25 30.43l11.337-30.43h13.176L32.39 51.423z"/></symbol><symbol viewBox="0 0 16 16" id="fill" xmlns="http://www.w3.org/2000/svg"><path d="M7.1 1.7L5.9 2.8 3.6.4C3-.1 2-.1 1.4.4c-.2.3-.4.7-.4 1.1s.2.8.4 1.1L3.8 5 0 8.7l6.4 6.4 7-7.1-6.3-6.3zm-5 .2c0-.1-.1-.3-.1-.4s.1-.3.1-.4c.2-.1.6-.1.8 0l2.4 2.4-.8.7-2.4-2.3zm0 6.1l3.8-3.8 1.2 1.2c.1.1.2.1.4.1s.3 0 .4-.1c.1-.2.1-.5-.1-.7L6.6 3.5l.4-.4L12 8H2.1zm11.4 1S12 13.7 12 14.5s.7 1.5 1.5 1.5 1.5-.7 1.5-1.5S13.5 9 13.5 9z"/></symbol><symbol viewBox="0 0 51.997 51.997" id="like" xmlns="http://www.w3.org/2000/svg"><path d="M51.911 16.242c-.759-8.354-6.672-14.415-14.072-14.415-4.93 0-9.444 2.653-11.984 6.905-2.517-4.307-6.846-6.906-11.697-6.906C6.759 1.826.845 7.887.087 16.241c-.06.369-.306 2.311.442 5.478 1.078 4.568 3.568 8.723 7.199 12.013l18.115 16.439 18.426-16.438c3.631-3.291 6.121-7.445 7.199-12.014.748-3.166.502-5.108.443-5.477zm-2.39 5.019c-.984 4.172-3.265 7.973-6.59 10.985L25.855 47.481 9.072 32.25c-3.331-3.018-5.611-6.818-6.596-10.99-.708-2.997-.417-4.69-.416-4.701l.015-.101c.65-7.319 5.731-12.632 12.083-12.632 4.687 0 8.813 2.88 10.771 7.515l.921 2.183.921-2.183c1.927-4.564 6.271-7.514 11.069-7.514 6.351 0 11.433 5.313 12.096 12.727.002.016.293 1.71-.415 4.707z"/></symbol><symbol viewBox="0 0 718.749 718" id="magic" xmlns="http://www.w3.org/2000/svg"><path d="M519.098 299.852h24.953v74.87h-24.953zm0-299.477h24.953v74.867h-24.953zM643.879 175.07h74.871v24.957h-74.871zm-299.477 0h74.871v24.957h-74.87zM602.16 99.309l52.95-52.934 17.644 17.648-52.942 52.938zM390.406 64.027l17.64-17.648 52.95 52.941-17.652 17.653zm211.746 211.75l17.645-17.64 52.945 52.941-17.652 17.645zM531.578 155.11l32.445 32.437-101.078 100.992-32.441-32.441zM412.891 273.655l32.445 32.434-412.89 412.863L0 686.512zm0 0"/></symbol><symbol viewBox="0 0 472.811 472.811" id="phone" xmlns="http://www.w3.org/2000/svg"><path d="M358.75 0H114.061C97.555 0 84.128 13.428 84.128 29.934v412.944c0 16.505 13.428 29.934 29.934 29.934H358.75c16.506 0 29.934-13.428 29.934-29.934V29.934C388.683 13.428 375.256 0 358.75 0zM99.128 75.236h274.556v312.687H99.128V75.236zM114.061 15H358.75c8.234 0 14.934 6.699 14.934 14.934v35.302H99.128V29.934c0-8.235 6.699-14.934 14.933-14.934zM358.75 457.811H114.061c-8.234 0-14.934-6.699-14.934-14.934v-44.955h274.556v44.955c0 8.235-6.699 14.934-14.933 14.934z"/><path d="M236.406 404.552c-13.545 0-24.564 11.02-24.564 24.565s11.02 24.564 24.564 24.564 24.564-11.02 24.564-24.564-11.019-24.565-24.564-24.565zm0 39.129c-8.031 0-14.564-6.534-14.564-14.564 0-8.031 6.533-14.565 14.564-14.565s14.564 6.534 14.564 14.565c0 8.03-6.533 14.564-14.564 14.564zm-34-396.036h68a5 5 0 1 0 0-10h-68a5 5 0 1 0 0 10zm-17.997 0c1.31 0 2.6-.53 3.53-1.46.93-.94 1.47-2.22 1.47-3.54s-.54-2.6-1.47-3.54a5.034 5.034 0 0 0-3.53-1.46c-1.32 0-2.601.53-3.54 1.46-.93.93-1.46 2.22-1.46 3.54s.53 2.6 1.46 3.54c.93.93 2.22 1.46 3.54 1.46z"/></symbol><symbol viewBox="0 0 512 512" id="port" xmlns="http://www.w3.org/2000/svg"><path d="M469.333 106.667H362.667V85.333c0-23.531-19.135-42.667-42.667-42.667H192c-23.531 0-42.667 19.135-42.667 42.667v21.333H42.667C19.135 106.667 0 125.802 0 149.333v277.333c0 23.531 19.135 42.667 42.667 42.667h426.667c23.531 0 42.667-19.135 42.667-42.667V149.333c-.001-23.531-19.136-42.666-42.668-42.666zM170.667 85.333C170.667 73.573 180.24 64 192 64h128c11.76 0 21.333 9.573 21.333 21.333v21.333H170.667V85.333zm320 341.334c0 11.76-9.573 21.333-21.333 21.333H42.667c-11.76 0-21.333-9.573-21.333-21.333V271.4c6.301 3.674 13.527 5.934 21.333 5.934h170.667v32a10.66 10.66 0 0 0 10.667 10.667h64a10.66 10.66 0 0 0 10.667-10.667v-32h170.667c7.806 0 15.033-2.259 21.333-5.934v155.267zm-256-128V256h42.667v42.667h-42.667zm256-64c0 11.76-9.573 21.333-21.333 21.333H298.667v-10.667A10.66 10.66 0 0 0 288 234.666h-64a10.66 10.66 0 0 0-10.667 10.667V256H42.667c-11.76 0-21.333-9.573-21.333-21.333v-85.333c0-11.76 9.573-21.333 21.333-21.333h426.667c11.76 0 21.333 9.573 21.333 21.333v85.333z"/></symbol><symbol viewBox="0 0 487.222 487.222" id="star" xmlns="http://www.w3.org/2000/svg"><path d="M486.554 186.811c-1.6-4.9-5.8-8.4-10.9-9.2l-152-21.6-68.4-137.5c-2.3-4.6-7-7.5-12.1-7.5s-9.8 2.9-12.1 7.6l-67.5 137.9-152 22.6c-5.1.8-9.3 4.3-10.9 9.2s-.2 10.3 3.5 13.8l110.3 106.9-25.5 151.4c-.9 5.1 1.2 10.2 5.4 13.2 2.3 1.7 5.1 2.6 7.9 2.6 2.2 0 4.3-.5 6.3-1.6l135.7-71.9 136.1 71.1c2 1 4.1 1.5 6.2 1.5 7.4 0 13.5-6.1 13.5-13.5 0-1.1-.1-2.1-.4-3.1l-26.3-150.5 109.6-107.5c3.9-3.6 5.2-9 3.6-13.9zm-137 107.1c-3.2 3.1-4.6 7.6-3.8 12l22.9 131.3-118.2-61.7c-3.9-2.1-8.6-2-12.6 0l-117.8 62.4 22.1-131.5c.7-4.4-.7-8.8-3.9-11.9l-95.6-92.8 131.9-19.6c4.4-.7 8.2-3.4 10.1-7.4l58.6-119.7 59.4 119.4c2 4 5.8 6.7 10.2 7.4l132 18.8-95.3 93.3z"/></symbol><symbol viewBox="0 0 60 60" id="time" xmlns="http://www.w3.org/2000/svg"><path d="M30 0C13.458 0 0 13.458 0 30s13.458 30 30 30 30-13.458 30-30S46.542 0 30 0zm0 58C14.561 58 2 45.439 2 30S14.561 2 30 2s28 12.561 28 28-12.561 28-28 28z"/><path d="M30 6a1 1 0 0 0-1 1v23H14a1 1 0 1 0 0 2h16a1 1 0 0 0 1-1V7a1 1 0 0 0-1-1z"/></symbol></svg>